<svg xmlns="http://www.w3.org/2000/svg" data-name="logotype" viewBox="0 0 455.96 86.11">
  <path d="M440.06,42.77V37.06H427.14V69.79c-1.42,1-4.44,2.94-7.27,2.94-3,0-3.67-2.33-3.67-5.53V50.93c0-9.62-6.78-15.27-19.41-15.27a91.47,91.47,0,0,0-15.51,1.4V49.91a80.38,80.38,0,0,1,12.35-1.31c5.76,0,7.94,2.21,7.94,5.63v1.53a33.18,33.18,0,0,0-7.95-.86c-11.49,0-18.37,6.19-18.64,15.31a13,13,0,0,1-7.64,2.52c-3.56,0-4.92-2.53-4.92-5.77V50.15h11.11V37.07H362.42V20.39H347.51V37.07H341.2V50.15h6.31V71.29c0,9.56,5.95,14.79,14.43,14.79A30,30,0,0,0,378.87,81a17.4,17.4,0,0,0,25-.41c2.36,3,5.33,5.49,11.27,5.49,4.38,0,8.67-1.83,12-3.81V84.7h15V58.32c0-4.92,3.73-9.7,10.15-8.82L456,36.81a15.13,15.13,0,0,0-6.06-1.31C446.67,35.5,442.38,37.14,440.06,42.77ZM401.39,66.36c0,4.21-2.16,7.87-6.26,7.87a4.69,4.69,0,0,1-5-4.8c0-3.61,2.82-5.29,6.23-5.29a14.28,14.28,0,0,1,5,.84Z"/>
  <path d="M149.82,54.9c-11.73,0-18.67,6.44-18.67,15.86,0,10.43,8.81,15.32,16.46,15.32a17.53,17.53,0,0,0,12.44-5.49c2.36,3,5.32,5.49,11.26,5.49s11.88-3.11,15.37-5.4a13.48,13.48,0,0,0,11.15,5.4A28.81,28.81,0,0,0,215,80.69a20.24,20.24,0,0,0,14.41,5.42c12.49,0,20.94-9.48,20.94-25.26a34.24,34.24,0,0,0-1.14-9.28,17.12,17.12,0,0,0,9.46-1.31V84.7h14.95V55.09c0-3.73,2.16-6.1,5.44-6.1,2.89,0,4.93,2.5,4.93,6.1V71.83c0,10.15,5.66,14.25,13.41,14.25a24.4,24.4,0,0,0,11.36-3.26c4.5,2.05,8,3.2,13.23,3.2,9.82,0,19-5.63,19-15.18,0-8.56-5.7-11.57-11.95-14.21-5.66-2.4-7.65-3.51-7.65-5.44,0-1.57,1.56-2.49,4.31-2.49a59.39,59.39,0,0,1,11,1.45V37.07a45.72,45.72,0,0,0-11.76-1.54c-10.77,0-18.66,6-18.66,14.29,0,7.64,3.33,11,12,15.11,5,2.39,7.56,3.09,7.56,5.09,0,1.82-1.77,2.82-4.57,2.82a21.09,21.09,0,0,1-10.94-2.7,14.36,14.36,0,0,1-7.63,2.7c-2.76,0-3.82-1.86-3.82-5.46V50.7c0-7.05-3.71-15-13.92-15a19.79,19.79,0,0,0-12.7,4.34V37.12H259.48c-1.54,1.85-6.13,3.62-9.33,3.62a20.11,20.11,0,0,1-10.07-2.3,20.9,20.9,0,0,0-10.72-2.74C218.54,35.7,208,43.64,208,60.85a37.12,37.12,0,0,0,1.14,9.47,11.32,11.32,0,0,1-6.84,2.41c-3.31,0-4.17-3-4.17-5.65V12.7h-15v57c0,.06,0,.11,0,.16-1.48,1.06-4.39,2.85-7.13,2.85-3,0-3.68-2.33-3.68-5.53V50.93c0-9.62-6.23-15.27-18.87-15.27a98.34,98.34,0,0,0-16,1.4V49.91a85.53,85.53,0,0,1,12.8-1.31c5.13,0,7.4,2.21,7.4,5.63v1.53A33.1,33.1,0,0,0,149.82,54.9Zm7.76,11.46c0,4.21-2.15,7.87-6.25,7.87a4.69,4.69,0,0,1-5-4.8c0-3.61,2.81-5.29,6.22-5.29a14.24,14.24,0,0,1,5,.84Zm71.78-17.45c4.52,0,6,5.07,6,12.37,0,6.32-1.52,11.45-6,11.45s-6.16-4.65-6.16-11.45S224.81,48.91,229.36,48.91Z"/>
  <path d="M22.59,59.8c-4.24,13.44-8,24.89-8,24.89H30.84l8.58-28.25c7.35-1.55,14.77-2.87,22.13-3.85l10.14,32.1H87.9S82.49,68.52,76.76,51A104.63,104.63,0,0,1,89,50.26s7.42,22,9.75,28.41c1.74,4.8,4.16,7.4,9.64,7.4,4.84,0,7.71-2.69,9.68-7.57,2.38-5.89,14.83-41.44,14.83-41.44H117.85L108.4,68.28,101,37.06s-8.1-.08-12.29,0c-5.19.09-9.73.39-16.24.88C67.94,24.19,63.85,12,62.6,8.73,60.59,3.53,57.81,0,51,0c-5.66,0-9.62,3.2-11.87,8.87-1.73,4.35-6.88,20.23-12,36.34C18.32,47.33,8.55,49.84,0,52.61L3.79,65.06C9.64,63.21,16.35,61.45,22.59,59.8ZM51,18.44,57.71,39.9c-4.53.62-10.23,1.56-14.2,2.24Z"/>
</svg>